<svg xmlns="http://www.w3.org/2000/svg" viewBox="0 0 419 612.19"><defs><style>.cls-1{fill:#f1d558;}.cls-2{fill:#fff;}.cls-3{fill:#274072;}.cls-4{fill:#f0a048;}.cls-5{fill:#d7195b;}.cls-6{fill:#3c3f58;stroke:#cec121;stroke-miterlimit:10;}</style></defs><g id="Capa_2" data-name="Capa 2"><g id="Capa_1-2" data-name="Capa 1"><path class="cls-1" d="M310.16,253.69c0-.56,0-1.13,0-1.7,0-54.37-40-98.45-89.36-98.45S131.47,197.62,131.47,252c0,.57,0,1.14,0,1.7Z"/><ellipse class="cls-2" cx="193.5" cy="214.35" rx="15.92" ry="18.44"/><ellipse class="cls-2" cx="249.1" cy="214.35" rx="15.92" ry="18.44"/><ellipse class="cls-3" cx="193.5" cy="221.5" rx="9.74" ry="11.28"/><ellipse class="cls-3" cx="249.1" cy="221.5" rx="9.74" ry="11.28"/><path class="cls-4" d="M287.78,114.2c-.15,1,6.73-75.17,20-94.5,0,0,7.58-15.09-81.86-19.7,0,0-87.43,0-88.94,20.12,0,0,21.88,63.7,20.29,94.08,0,0,42.37,13.62,73.2,12a160.27,160.27,0,0,0,55.08-13.41s.57,21.37,3.57,21-37.94,18.86-69.77,15.51-64.69-15.51-64.69-15.51a52.49,52.49,0,0,0,2.61-19.49s-36-7.75-36.72,5.45,6.83,40,52.31,53.44,104.1,3.77,121.78-9.64,27.9-21.18,28.86-45.17C323.5,118.28,323.88,107.71,287.78,114.2Z"/><ellipse class="cls-5" cx="222" cy="254.19" rx="25.5" ry="15.5"/><rect class="cls-6" x="0.5" y="283.69" width="418" height="328"/><path class="cls-1" d="M38.5,272.69s-15,15-13,30,20,21,28,22,21.68-.95,28-5c7.66-4.9,17-24,12-30s-1.66-15.79-6-17C51.5,262.69,38.5,272.69,38.5,272.69Z"/><path class="cls-1" d="M87,273.52a25.79,25.79,0,0,1,14,3.05c4.19,2.45,7.46,6.72,8,11.54s-2.17,10-6.69,11.78a15.22,15.22,0,0,1-7.93.44,30.17,30.17,0,0,1-8.54-2.66,7.81,7.81,0,0,1-2.63-1.86,7.53,7.53,0,0,1-1.43-4.13A21.27,21.27,0,0,1,88.62,274"/><path class="cls-1" d="M393.82,272.69s15,15,13,30-20,21-28,22-21.68-.95-28-5c-7.66-4.9-17-24-12-30s1.66-15.79,6-17C380.82,262.69,393.82,272.69,393.82,272.69Z"/><path class="cls-1" d="M345.38,273.52a25.77,25.77,0,0,0-14,3.05c-4.19,2.45-7.47,6.72-8,11.54s2.16,10,6.69,11.78a15.18,15.18,0,0,0,7.92.44,30,30,0,0,0,8.54-2.66,7.85,7.85,0,0,0,2.64-1.86,7.61,7.61,0,0,0,1.43-4.13A21.25,21.25,0,0,0,343.7,274"/></g></g></svg>